<mxfile host="app.diagrams.net" modified="2023-01-31T11:57:27.931Z" agent="5.0 (Windows NT 10.0; Win64; x64) AppleWebKit/537.36 (KHTML, like Gecko) Chrome/109.0.0.0 Safari/537.36" etag="wDGQX0EoeEfsGdVZrKPh" version="20.8.13" type="github">
  <diagram name="Page-1" id="1oY87gOgOtbdwA-CNumr">
    <mxGraphModel dx="1050" dy="541" grid="1" gridSize="10" guides="1" tooltips="1" connect="1" arrows="1" fold="1" page="1" pageScale="1" pageWidth="850" pageHeight="1100" math="0" shadow="0">
      <root>
        <mxCell id="0" />
        <mxCell id="1" parent="0" />
        <mxCell id="A2a2hrjPvCJ1dBXc1gBQ-8" style="edgeStyle=orthogonalEdgeStyle;rounded=0;orthogonalLoop=1;jettySize=auto;html=1;" edge="1" parent="1" source="A2a2hrjPvCJ1dBXc1gBQ-6" target="A2a2hrjPvCJ1dBXc1gBQ-7">
          <mxGeometry relative="1" as="geometry" />
        </mxCell>
        <mxCell id="A2a2hrjPvCJ1dBXc1gBQ-6" value="" style="strokeWidth=2;html=1;shape=mxgraph.flowchart.start_2;whiteSpace=wrap;" vertex="1" parent="1">
          <mxGeometry x="60" y="300" width="40" height="40" as="geometry" />
        </mxCell>
        <mxCell id="A2a2hrjPvCJ1dBXc1gBQ-10" style="edgeStyle=orthogonalEdgeStyle;rounded=0;orthogonalLoop=1;jettySize=auto;html=1;" edge="1" parent="1" source="A2a2hrjPvCJ1dBXc1gBQ-7" target="A2a2hrjPvCJ1dBXc1gBQ-9">
          <mxGeometry relative="1" as="geometry" />
        </mxCell>
        <mxCell id="A2a2hrjPvCJ1dBXc1gBQ-7" value="Idle" style="rounded=1;whiteSpace=wrap;html=1;" vertex="1" parent="1">
          <mxGeometry x="230" y="295" width="100" height="50" as="geometry" />
        </mxCell>
        <mxCell id="A2a2hrjPvCJ1dBXc1gBQ-13" style="edgeStyle=orthogonalEdgeStyle;rounded=0;orthogonalLoop=1;jettySize=auto;html=1;" edge="1" parent="1" source="A2a2hrjPvCJ1dBXc1gBQ-9" target="A2a2hrjPvCJ1dBXc1gBQ-11">
          <mxGeometry relative="1" as="geometry" />
        </mxCell>
        <mxCell id="A2a2hrjPvCJ1dBXc1gBQ-9" value="Walk" style="rounded=1;whiteSpace=wrap;html=1;" vertex="1" parent="1">
          <mxGeometry x="400" y="295" width="100" height="50" as="geometry" />
        </mxCell>
        <mxCell id="A2a2hrjPvCJ1dBXc1gBQ-15" style="edgeStyle=orthogonalEdgeStyle;rounded=0;orthogonalLoop=1;jettySize=auto;html=1;entryX=0.5;entryY=0;entryDx=0;entryDy=0;" edge="1" parent="1" source="A2a2hrjPvCJ1dBXc1gBQ-11" target="A2a2hrjPvCJ1dBXc1gBQ-14">
          <mxGeometry relative="1" as="geometry" />
        </mxCell>
        <mxCell id="A2a2hrjPvCJ1dBXc1gBQ-19" style="edgeStyle=orthogonalEdgeStyle;rounded=0;orthogonalLoop=1;jettySize=auto;html=1;exitX=1;exitY=0.5;exitDx=0;exitDy=0;" edge="1" parent="1" source="A2a2hrjPvCJ1dBXc1gBQ-11">
          <mxGeometry relative="1" as="geometry">
            <mxPoint x="450" y="290" as="targetPoint" />
            <Array as="points">
              <mxPoint x="670" y="320" />
              <mxPoint x="670" y="260" />
              <mxPoint x="450" y="260" />
              <mxPoint x="450" y="290" />
            </Array>
          </mxGeometry>
        </mxCell>
        <mxCell id="A2a2hrjPvCJ1dBXc1gBQ-11" value="Is player Detected?" style="rhombus;whiteSpace=wrap;html=1;" vertex="1" parent="1">
          <mxGeometry x="560" y="280" width="80" height="80" as="geometry" />
        </mxCell>
        <mxCell id="A2a2hrjPvCJ1dBXc1gBQ-18" style="edgeStyle=orthogonalEdgeStyle;rounded=0;orthogonalLoop=1;jettySize=auto;html=1;entryX=0.5;entryY=0;entryDx=0;entryDy=0;" edge="1" parent="1" source="A2a2hrjPvCJ1dBXc1gBQ-14" target="A2a2hrjPvCJ1dBXc1gBQ-17">
          <mxGeometry relative="1" as="geometry" />
        </mxCell>
        <mxCell id="A2a2hrjPvCJ1dBXc1gBQ-14" value="Run" style="rounded=1;whiteSpace=wrap;html=1;" vertex="1" parent="1">
          <mxGeometry x="550" y="430" width="100" height="50" as="geometry" />
        </mxCell>
        <mxCell id="A2a2hrjPvCJ1dBXc1gBQ-17" value="Attack player" style="rounded=1;whiteSpace=wrap;html=1;" vertex="1" parent="1">
          <mxGeometry x="550" y="540" width="100" height="50" as="geometry" />
        </mxCell>
      </root>
    </mxGraphModel>
  </diagram>
</mxfile>
